<?xml version="1.0" encoding="utf-8"?>
<!-- Generator: Adobe Illustrator 19.0.0, SVG Export Plug-In . SVG Version: 6.00 Build 0)  -->
<svg version="1.1" id="Layer_1" xmlns="http://www.w3.org/2000/svg" xmlns:xlink="http://www.w3.org/1999/xlink" x="0px" y="0px"
	 viewBox="65 160 180 180" style="enable-background:new 65 160 180 180;" xml:space="preserve">
<style type="text/css">
	.st0{fill:url(#XMLID_31_);}
	.st1{fill:url(#XMLID_32_);}
	.st2{fill:#646464;}
</style>
<g id="XMLID_1_">
	
		<linearGradient id="XMLID_31_" gradientUnits="userSpaceOnUse" x1="0.3274" y1="-0.1335" x2="1.1578" y2="-0.1335" gradientTransform="matrix(67.9591 59.0341 -58.4697 68.6152 75.0585 191.0669)">
		<stop  offset="0" style="stop-color:#5A9FD4"/>
		<stop  offset="1" style="stop-color:#306998"/>
	</linearGradient>
	<path id="XMLID_8_" class="st0" d="M158.2,198.3c-4.2,0-8.2,0.4-11.8,1c-10.4,1.8-12.3,5.7-12.3,12.8v9.4h24.7v3.1H134h-9.3
		c-7.2,0-13.4,4.3-15.4,12.5c-2.3,9.4-2.4,15.3,0,25.1c1.8,7.3,5.9,12.5,13.1,12.5h8.5v-11.3c0-8.1,7-15.3,15.4-15.3H171
		c6.9,0,12.3-5.6,12.3-12.5v-23.5c0-6.7-5.6-11.7-12.3-12.8C166.8,198.6,162.4,198.3,158.2,198.3z M144.8,205.9
		c2.5,0,4.6,2.1,4.6,4.7c0,2.6-2.1,4.7-4.6,4.7c-2.6,0-4.6-2.1-4.6-4.7C140.2,208,142.3,205.9,144.8,205.9z"/>
	
		<linearGradient id="XMLID_32_" gradientUnits="userSpaceOnUse" x1="-5.905700e-002" y1="0.3614" x2="0.7714" y2="0.3614" gradientTransform="matrix(-24.2682 -34.6667 34.3353 -24.5024 169.5209 286.7352)">
		<stop  offset="0" style="stop-color:#FFD43B"/>
		<stop  offset="1" style="stop-color:#FFE873"/>
	</linearGradient>
	<path id="XMLID_11_" class="st1" d="M186.4,224.7v11c0,8.5-7.2,15.6-15.4,15.6h-24.6c-6.8,0-12.3,5.8-12.3,12.5v23.5
		c0,6.7,5.8,10.6,12.3,12.5c7.8,2.3,15.3,2.7,24.6,0c6.2-1.8,12.3-5.4,12.3-12.5v-9.4h-24.6v-3.1h24.6h12.3c7.2,0,9.8-5,12.3-12.5
		c2.6-7.7,2.5-15.2,0-25.1c-1.8-7.1-5.2-12.5-12.3-12.5H186.4z M172.6,284.2c2.6,0,4.6,2.1,4.6,4.7c0,2.6-2.1,4.7-4.6,4.7
		c-2.5,0-4.6-2.1-4.6-4.7C167.9,286.3,170,284.2,172.6,284.2z"/>
	<path id="XMLID_19_" class="st2" d="M156.8,168.6c-27.1,0-49,8-65.7,23.8c-15.8,14.9-23.7,33.3-23.7,55.1c0,23.2,7.3,42.5,21.9,58
		c16.1,17.3,38.4,26,67,26c28.9,0,51.5-8.7,67.9-26c4.4-4.5,8.1-9.4,11.2-14.7h-33.4c-8.6,16-23.7,24.1-45.1,24.2
		c-19.1,0.3-33.5-7.3-43.1-22.6c-7.5-12-11.2-27-11.2-44.9c0-39.1,17.8-59.5,53.6-61.2c19.3,0.7,33.7,7.6,42.9,20.6
		c1.8,2.4,3.3,5,4.6,7.7h35.5c-3.9-8.1-9.4-15.5-16.5-22.2C206,176.5,183.9,168.6,156.8,168.6z"/>
</g>
</svg>
