<svg viewBox="1300 0 300 300" xmlns="http://www.w3.org/2000/svg" xml:space="preserve">
  <path d="M1374.64 312.799c.69-1.754 3.76-10.466 5.37-24.846 1.38-12.338 1.4-61.034 0-73.652-2.17-19.611-15.34-80.881-15.34-80.881l199.75 24.842s-10.97 11.234-14.6 17.378c-5.38 9.095-14.81 23.922-20.26 36.869-7.4 17.592-14.65 47.291-22.94 70.099-9.65 26.566-22.57 67.701-33.75 90.715-8.46 17.423-22.07 36.982-33.33 47.371-9.24 8.521-23.47 11.66-35.49 13.545-12.02 1.886-36.77.256-106.1-22.612-22.69-7.483-141.14 1.023-168.02 6.757-25.63 5.468-43.8 11.732-44.91 12.007-84.25 20.788-145.656-6.889-160.667-7.267-24.592-.62-120.796 24.383-159.324 26.2-49.342 2.327-46.058-1.292-115.647-24.057-37.826-12.374-46.833-23.521-86.424-26.674-57.149-4.551-128.296 23.431-153.655 29.24-34.12 7.817-91.285 9.604-117.709-4.709-19.315-10.463-27.819-26.317-56.252-14.814-12.015 4.861-27.699 19.553-32.491 27.362-4.447 12.542-8.366 12.336-8.696 0-.446-16.677 11.004-35.496 28.042-47.919 6.896-5.173 26.798-11.947 50.004-6.17 17.932 4.463 61.524 4.214 97.015 0 30.198-3.586 80.853-19.466 111.387-37.625 43.928-26.125 94.045-20.397 107.083-19.446 21.37 1.56 108.437 33.485 153.454 35.23 47.006 1.822 121.509-25.322 147.902-28.552 56.613-6.929 140.128 5.865 193.548-6.766 48.61-11.496 128.81-12.506 174.11-13.07 55.53-.693 102.5 40.506 117.94 1.445Z" style="fill:#aa910d;stroke:#000;stroke-width:3.33px" transform="matrix(.99616 0 0 .99616 -12.425 -17.602)"/>
  <path d="m1510.95 184 52.26-26.141s-10.97 11.234-14.61 17.378c-5.37 9.095-14.8 23.922-20.25 36.869-7.4 17.592-14.65 47.291-22.94 70.099-9.65 26.566-22.57 67.701-33.75 90.715-8.47 17.423-20.84 35.832-32.1 46.221-9.24 8.521-20.01 9.717-30.75 12.059-16.34 3.563-41.05-3.714-41.05-3.714 16.38-1.698 34.69-9.369 41.2-16.754 11.25-12.758 25.98-34.378 46.98-79.928 7.05-15.296 12.54-34.774 17.56-46.914 9.48-22.948 14.79-54.169 22.65-72.377 4.33-10.011 14.8-27.513 14.8-27.513Z" style="fill:#dcbc00" transform="matrix(.99616 0 0 .99616 -12.585 -17.603)"/>
  <g>
    <path d="M1543.54 151.836c25.42.005 46.06 20.655 46.06 46.086-.01 25.43-20.66 46.073-46.08 46.068-11.89-.002-22.72-4.514-30.9-11.914l-.12-.112-66.13-.04s-.11.099-.16.148c-8.18 7.392-19.01 11.895-30.89 11.893-25.43-.005-46.07-20.655-46.06-46.086 0-25.431 20.65-46.073 46.08-46.068l128.2.025Z" style="fill:#cbcfcc;stroke:#000;stroke-width:2.65px" transform="scale(.99616) rotate(7 1479.954 -129.036)"/>
    <path d="M671.126 294.011c17.661-.094 32.075 14.169 32.169 31.83.093 17.661-14.169 32.075-31.83 32.169-17.661.094-32.076-14.169-32.169-31.83-.094-17.661 14.169-32.076 31.83-32.169Z" style="fill:#465d63" transform="matrix(1.23783 .15206 -.15207 1.23798 715.078 -303.347)"/>
    <path d="m671.925 328.927 2.372-3.663-2.184-3.333 1.651-.009 1.414 2.24 1.363-2.255 1.636-.008-2.158 3.409 2.41 3.585-1.703.009-1.564-2.411-1.543 2.427-1.694.009Z" style="fill:#c8d0d2;fill-rule:nonzero" transform="matrix(.70714 .08687 -.08688 .70722 1064.407 -111.077)"/>
    <path d="m674.752 329.265-.016-2.944-2.583-4.037 1.655-.009 1.661 2.759 1.598-2.776 1.627-.009-2.55 4.074.016 2.935-1.408.007Z" style="fill:#c8d0d2;fill-rule:nonzero" transform="matrix(.70714 .08687 -.08688 .70722 1012.784 -79.805)"/>
    <path d="m673 322.152 2.797-.015c.553-.003.966.018 1.238.063.272.044.516.139.732.284.215.146.395.339.54.582.144.243.217.515.219.817.002.328-.085.629-.26.903a1.646 1.646 0 0 1-.715.62c.427.122.756.331.986.629.231.298.347.649.349 1.053.002.318-.07.628-.217.929a1.863 1.863 0 0 1-.602.724c-.255.181-.57.293-.945.337-.235.026-.803.045-1.703.056l-2.381.013-.038-6.995Zm1.419 1.157.009 1.617.925-.005c.551-.003.893-.013 1.026-.029.242-.03.431-.115.569-.254a.737.737 0 0 0 .205-.547.77.77 0 0 0-.182-.526c-.12-.135-.298-.216-.533-.243-.14-.015-.543-.021-1.208-.018l-.811.005Zm.015 2.781.01 1.871 1.307-.007c.509-.003.832-.019.969-.048a.872.872 0 0 0 .511-.282c.131-.149.196-.347.195-.595a.91.91 0 0 0-.156-.534.86.86 0 0 0-.443-.317c-.193-.066-.61-.097-1.253-.094l-1.14.006Z" style="fill:#c8d0d2;fill-rule:nonzero" transform="matrix(.70714 .08687 -.08688 .70722 1027.933 -61.94)"/>
    <path d="m679.066 328.752-1.536.008-.619-1.586-2.796.015-.569 1.592-1.499.008 2.688-7.009 1.493-.008 2.838 6.98Zm-2.615-2.754-.977-2.59-.931 2.6 1.908-.01Z" style="fill:#c8d0d2;fill-rule:nonzero" transform="matrix(.70714 .08687 -.08688 .70722 1080.774 -92.506)"/>
    <g>
      <path d="M733.575 310.063c-.025-7.24-3.854-13.086-8.545-13.048-4.691.039-8.48 5.947-8.455 13.187l.126 36.765c.025 7.24 3.854 13.086 8.545 13.048 4.691-.039 8.48-5.947 8.455-13.187l-.126-36.765Z" style="fill:#d1d1cd" transform="matrix(.63873 .97897 -.63434 .41398 1231.773 -652.184)"/>
      <path d="M678.152 355.215a7.926 7.926 0 0 1 7.964 7.881c.024 4.372-3.507 7.94-7.88 7.964a7.926 7.926 0 0 1-7.964-7.881 7.927 7.927 0 0 1 7.88-7.964Z" style="fill:#be0003" transform="matrix(.54522 .83565 -.83556 .5453 1409.453 -563.946)"/>
      <path d="M678.015 355.216a7.927 7.927 0 0 1 7.964 7.88 7.926 7.926 0 0 1-7.88 7.964 7.926 7.926 0 0 1-7.964-7.88 7.925 7.925 0 0 1 7.88-7.964Z" style="fill:#be0003" transform="matrix(.54522 .83565 -.83556 .5453 1431.177 -578.124)"/>
    </g>
    <g>
      <path d="M733.551 309.883c-.025-7.24-3.854-13.086-8.545-13.047-4.691.038-8.48 5.946-8.455 13.186l.126 36.766c.025 7.239 3.854 13.085 8.545 13.047 4.691-.039 8.48-5.947 8.455-13.186l-.126-36.766Z" style="fill:#d1d1cd" transform="matrix(.63873 .97897 -.63434 .41398 1250.212 -633.482)"/>
      <path d="M678.124 355.079a7.926 7.926 0 0 1 7.964 7.88 7.926 7.926 0 0 1-7.88 7.964 7.926 7.926 0 0 1-7.964-7.88 7.926 7.926 0 0 1 7.88-7.964Z" style="fill:#be0003" transform="matrix(.54522 .83565 -.83556 .5453 1427.882 -545.246)"/>
      <path d="M677.987 355.079a7.927 7.927 0 0 1 7.964 7.88 7.926 7.926 0 0 1-7.881 7.964 7.926 7.926 0 0 1-7.964-7.88 7.926 7.926 0 0 1 7.881-7.964Z" style="fill:#be0003" transform="matrix(.54522 .83565 -.83556 .5453 1449.616 -559.422)"/>
    </g>
    <g>
      <path d="M594.538 371.767c.001-1.771-1.207-3.211-2.696-3.212l-13.604-.015c-1.489-.001-2.699 1.436-2.7 3.207-.002 1.771 1.206 3.21 2.695 3.212l13.604.014c1.489.001 2.699-1.435 2.701-3.206Z" style="fill:#334249;stroke:#000;stroke-width:2.64px" transform="matrix(.82676 -.49745 .41816 .69517 774.41 231.48)"/>
      <path d="M592.669 374.588c0-1.772-1.208-3.21-2.698-3.21l-13.603-.002c-1.49 0-2.699 1.438-2.699 3.209 0 1.771 1.209 3.209 2.698 3.21l13.604.001c1.489 0 2.698-1.437 2.698-3.208Z" style="fill:#324148;stroke:#000;stroke-width:2.64px" transform="matrix(.82679 -.4974 .41813 .69519 798.535 231.471)"/>
      <g>
        <path d="M292.484 163.35c-.824-6.723-6.952-11.512-13.675-10.688l-102.217 12.529c-6.723.824-11.512 6.951-10.688 13.674l2.987 24.363c.825 6.723 6.952 11.513 13.675 10.689l102.217-12.529c6.723-.824 11.512-6.952 10.688-13.675l-2.987-24.363Z" style="fill:#646464" transform="matrix(.41597 .10371 -.10373 .41602 1358.154 64.99)"/>
      </g>
    </g>
    <g>
      <path d="M1409.57 204.851v7.671c0 3.927-.44 3.486 3.49 3.487l6.97.001c3.92 0 3.48.441 3.48-3.486l.01-7.67 7.66.001c3.93 0 3.49.441 3.49-3.486v-6.973c0-3.928.44-3.486-3.48-3.487l-7.67-.001v-7.67c0-3.928.44-3.487-3.49-3.487l-6.97-.001c-3.93-.001-3.48-.442-3.49 3.486v7.67l-7.67-.001c-3.92-.001-3.48-.442-3.48 3.485v6.973c-.01 3.928-.45 3.487 3.48 3.487l7.67.001Z" style="fill:#202c33;stroke:#000;stroke-width:2.47px" transform="scale(.99616) rotate(3.69 1554.612 -418.196)"/>
      <path d="m1404.38 197.522 23.97.004c1.21 0 2.83.686 2.83.686s.02-.529.02-.837v-1.148c0-3.366.72-2.469-2.85-2.47l-8.11.015v-8.728c0-3.366.73-2.469-2.85-2.47l-1.6.025c-3.58 0-2.86-.897-2.86 2.469v8.728l-8.55-.042c-3.57-.001-2.85-.898-2.85 2.469v1.148c0 .343-.01.705-.01.705s1.68-.554 2.86-.554Z" style="fill:#111618" transform="scale(.99616) rotate(3.69 1554.36 -411.436)"/>
      <path d="M1416.31 227.099c.65.034 7.43.271 14.96-4.534 4.6-2.936 8.13-8.613 8.13-8.613s-2.29 5.516-7.81 9.076c-6.85 4.426-14.58 4.109-15.28 4.071l-.05-.003.05.003Z" style="fill:gray" transform="scale(.99616) rotate(7 1479.954 -129.036)"/>
      <g>
        <path d="M1440.8 187.23c-.54-1.094-1.28-2.319-2.27-3.454-2.73-3.126-7.33-5.888-11.41-7.712-3.35-1.502-7.11-3.206-11.67-3.572-4.12-.33-10.24 1.006-10.24 1.006s12.48-5.38 23.59.618c6.82 3.684 10.35 9.472 12 13.114.91 1.869 1.24 3.354 1.24 3.354s-.34-1.353-1.24-3.354Z" style="fill:#3b3b3b" transform="scale(.99616) rotate(7 1479.954 -129.036)"/>
      </g>
    </g>
  </g>
  <g>
    <path d="M1484.47 23.611c19.24.016 19.47-10.351 37.06-13.878 9.6-1.924 21.77-.217 25.04.627 16.75 4.319 22.51 20.966 26.03 30.296 3.77 9.961 3.96 14.473 9.01 26.045 3.97 9.089 6.87 15.609 8.9 22.014 2.17 6.845 4.11 12.046 4.11 19.057 0 6.483-1.17 14.358-4.01 19.031-2.74 4.513-8.72 5.945-13.02 9.013-4.67 3.338-10.68 7.177-15.02 11.015-4.07 3.601-7.35 8.68-11.02 12.018-3.36 3.055-7.22 5.527-11.02 8.012-4.34 2.837-9.68 6.675-15.03 9.012a71.605 71.605 0 0 1-17.02 5.005c-7.18 1.167-17.7 2-26.05 1.998-8.04-.002-17.19-.838-24.03-2.008-5.83-.997-11.69-2.673-17.03-5.012-5.34-2.338-10.68-6.179-15.02-9.018-3.8-2.486-7.66-4.96-11.01-8.015-3.68-3.34-6.95-8.42-11.02-12.022-4.34-3.841-10.35-7.682-15.02-11.022-4.29-3.069-10.28-4.504-13.02-9.017-2.84-4.675-4.17-12.689-4-19.033.17-6.344 2.71-12.889 5.01-19.031 2.51-6.677 7.16-13.812 10.02-21.033 3.17-8.013 5.25-18.086 9.02-27.043 3.87-9.194 11.36-24.197 23.13-29.465 7.97-3.566 22.36-2.744 28.96-1.438 17.61 3.489 17.4 13.876 36.05 13.892Z" style="fill:#fee32d;stroke:#000;stroke-width:2.9px" transform="scale(.99616) rotate(7 1479.954 -129.036)"/>
    <path d="M1521.82 12.219c5.41-2.825 16.97-2.738 23.28-1.052 6.03 1.615 10.77 6.158 14.57 11.173 4.83 6.385 5.97 4.53 16.26 34.57 2.33 6.771 4.87 13.745 6.95 18.325 1.46 3.218 2.63 5.877 3.91 9.155 1.66 4.239 3.69 11.19 4.43 16.276.68 4.718 1.28 9.67 0 14.242-1.29 4.578-1.72 10.398-6.12 13.226-7.13 4.576-24 16.233-24 16.233-1.31-2.175 3.38-11.859-3.22-23.241-7.66-13.236-15.67-16.368-15.67-16.368s16.81-8.95 19.67-33.589c1.22-10.496-2.52-29.214-9.33-37.529-11.42-13.955-19.63-13.688-28.55-14.52-4.09-.382-3.79-6.056-2.18-6.901Z" style="fill:#ffdf26" transform="rotate(6.999 1474.311 -128.754) scale(.99616)"/>
    <path d="M1489.73 26.181s7.67-1.712 10.77-3.565c5.43-3.248 13.17-9.309 19.31-9.999 3.01-.338.82 3.116-.04 4.544-1.3 2.142-.83-.122-10.79 8.843-9.26 8.338-15.14 25.227-15.24 40.243-.05 6.97 5.56 22.796 7.01 23.037l-14.02-2.001s-1.48-19.371-1.01-29.048c.5-10.184 4.01-32.054 4.01-32.054Z" style="fill:#f0cc00" transform="rotate(6.999 1474.311 -128.754) scale(.99616)"/>
    <path d="M1404.61 143.389s-22.04-15.022-24.04-16.024c-5.58-2.788-5.84-13.542-6.01-20.032-.17-6.491 2.7-12.811 5.01-18.911 2.34-6.177 6.5-11.88 9.01-18.153 3.44-8.638 6.55-24.813 11.68-33.676 4.13-7.153 9.53-17.824 15.47-21.428 9.93-6.025 17.83-3.78 18.13-2.563.19.773-4.39 4.748-11.2 9.641-4.99 3.586-9.6 8.753-11.1 11.143-2.93 4.687-8.79 17.347-9.13 31.093-.13 5.343 1.63 15.901 2.61 19.463 1.57 5.666 3.57 16.875 3.57 19.379 0 2.24-2.06 3.977-3 6.011-1 2.17-2.48 4.523-3.01 7.012-.66 3.172-1.29 8.01-1 12.02.34 4.507 3.01 15.025 3.01 15.025Z" style="fill:#efcc00" transform="rotate(6.999 1474.311 -128.754) scale(.99616)"/>
    <path d="M1552.81 19.744c1.25-1.908 6.83 1.031 8.31 3.095 1.73 2.397 2.76 8.85 1.95 9.246-1.15.565-3.21-4.395-4.88-6.727-1.73-2.397-5.87-4.862-5.38-5.614ZM1584.59 109.737c-1.25-.448-1.57 2.788-2.5 5.743-1.06 3.406-1.67 4.344-3.2 6.093-4.71 5.412-4.9 9.092-3.89 9.179 4.32.369 7.1-5.668 8.68-9.82.96-2.495 1.61-10.941.91-11.195ZM1473.1 23.129c.58-.602 3.71 1.295 4.73 2.597 1.02 1.301 1.96 4.612 1.38 5.214-.58.602-4.21-.873-5.22-2.175-1.02-1.302-1.47-5.034-.89-5.636Z" style="fill:#fff" transform="matrix(.99616 0 0 .99616 -24.023 4.699)"/>
    <g>
      <path d="M1528.21 22.677c16.93.003 30.67 18.93 30.66 42.239 0 23.309-13.75 42.23-30.67 42.227-16.93-.004-30.66-18.93-30.66-42.239.01-23.309 13.75-42.23 30.67-42.227Z" style="fill:#fff;stroke:#000;stroke-width:2.77px" transform="scale(.99616) rotate(7 1479.954 -129.036)"/>
      <path d="M1484.005 75.094c5.25.645 8.997 5.438 8.352 10.694-.646 5.256-5.441 9-10.7 8.353-5.251-.646-8.998-5.439-8.353-10.696.655-5.255 5.44-8.998 10.7-8.351Z"/>
      <g>
        <path d="M1437.73 22.659c16.92.004 30.66 18.93 30.65 42.239 0 23.309-13.75 42.23-30.67 42.227-16.92-.003-30.66-18.93-30.66-42.239.01-23.309 13.75-42.23 30.68-42.227Z" style="fill:#fff;stroke:#000;stroke-width:2.77px" transform="scale(.99616) rotate(7 1479.954 -129.036)"/>
        <path d="M1421.716 67.433c5.25.645 8.997 5.438 8.352 10.695-.646 5.256-5.44 8.998-10.7 8.351-5.25-.645-8.998-5.438-8.353-10.694.646-5.256 5.44-9 10.7-8.352Z"/>
      </g>
    </g>
    <g>
      <path d="M569.42 389.108c4.179-.262 21.769 3.708 32.553 3.475 19.296-.417 23.893-2.471 27.111-1.976 15.011 2.309 17.815 14.26 16.328 21.639-1.851 9.191-9.038 24.657-45.425 24.425-41.638-.265-47.722-21.635-46.576-31.408 1.567-13.363 11.155-15.851 16.009-16.155Z" style="fill:#f0cc00;stroke:#000;stroke-width:2.83px" transform="matrix(.95596 .11687 -.12433 1.01703 899.223 -245.533)"/>
      <path d="M587.362 396.695c5.466-.322 10.13.018 16.749-.662 10.043-1.034 16.1-3.821 23.185-4.799 7.084-.978 13.223 3.198 16.43 8.06 3.636 5.51 2.806 10.165 2.071 13.484-2.825 12.743-14.471 20.247-43.172 19.946-11.318-.119-17.1-.841-25.347-5.942-6.222-3.849-11.212-14.444-8.002-21.748 3.715-8.451 12.918-8.035 18.086-8.339Z" style="fill:#fee32d" transform="matrix(.92066 .11255 -.11974 .97947 918.363 -227.391)"/>
      <path d="M859.405 400.127c1-.001 3.957 1.358 5.001 2.997 1.168 1.833 2.004 6.665 2.004 7.999.001.666-1.528.472-2 .001-.667-.666-1.107-2.807-2.002-3.999-1-1.333-3.501-2.832-4.002-3.998-.416-.969-.001-3 .999-3Z" style="fill:#fff" transform="matrix(.95596 .11687 -.11688 .95608 678.584 -250.258)"/>
    </g>
    <g>
      <path d="M590.975 316.747c38.347-3.871 71.334 5.44 73.618 20.778 2.283 15.339-26.996 30.935-65.343 34.806-38.347 3.871-71.334-5.44-73.617-20.779-2.284-15.339 26.995-30.934 65.342-34.805Z" style="fill-opacity:.27" transform="matrix(.96807 .24137 -.29313 1.17566 961.958 -394.9)"/>
      <path d="m1532.52 170.866 12.02-7.01-4.02 48.08-8-41.07ZM1430.36 170.846l-12.02-7.014 4 48.081 8.02-41.067Z" style="fill:#fff;stroke:#000;stroke-width:2.9px" transform="scale(.99616) rotate(7 1479.954 -129.036)"/>
      <path d="M584.086 297.961c36.426.009 65.991 9.875 65.981 22.017-.011 12.142-29.593 21.992-66.02 21.983-36.426-.01-65.991-9.876-65.98-22.018.01-12.142 29.592-21.992 66.019-21.982Z" style="fill:#fee32d;stroke:#000;stroke-width:1.72px" transform="matrix(1.14775 .14146 -.25521 2.0707 855.265 -610.623)"/>
      <path d="M3478.21 257.973s-50.43 18.356-50.45 65.29c-.03 46.935 49 63.602 49 63.602s-65.58-16.675-65.55-63.61c.02-46.934 67-65.282 67-65.282Z" style="fill:#e8c500" transform="matrix(.58397 .07197 -.07198 .58404 -596.84 -308.686)"/>
      <path d="M564.004 297.373c7.727.004 13.999 2.919 13.997 6.506-.002 3.588-6.277 6.498-14.004 6.494-7.727-.003-13.998-2.918-13.996-6.505.002-3.588 6.277-6.498 14.003-6.495Z" style="fill:#f7db27" transform="matrix(1.13933 .14042 -.16204 1.31476 878.913 -341.193)"/>
      <path d="M3456.32 281.48c2.23-9.101 16.78-16.132 34.38-16.123 19.13.009 34.66 8.337 34.65 18.585 0 5.851-5.07 11.071-12.97 14.471.19-.795.29-1.605.29-2.428.01-10.249-15.52-18.576-34.65-18.586-8.21-.004-15.75 1.525-21.7 4.081Z" style="fill:#cdb100" transform="matrix(.46018 .05672 -.05672 .46023 -118.008 -191.005)"/>
      <path d="M564.004 297.352c7.727.003 13.999 2.918 13.997 6.505-.002 3.588-6.277 6.498-14.004 6.495-7.727-.004-13.998-2.919-13.996-6.506.002-3.588 6.277-6.498 14.003-6.494Z" style="fill:#f7db27" transform="matrix(1.13933 .14042 -.16204 1.31476 819.5 -348.515)"/>
      <path d="M3456.32 281.418c2.23-9.102 16.78-16.132 34.38-16.124 19.13.009 34.66 8.337 34.65 18.586 0 5.85-5.07 11.07-12.97 14.471.19-.795.29-1.606.29-2.429.01-10.248-15.52-18.576-34.65-18.585-8.21-.004-15.75 1.524-21.7 4.081Z" style="fill:#cdb100" transform="matrix(.46018 .05672 -.05672 .46023 -177.421 -198.327)"/>
      <g>
        <path d="M1505.26 121.885c1.02-1.529 7.67 3.88 8.31 4.724.78 1.045 7.03 5.436 4.18 7.893-2.93 2.518-4.64-3.501-6.83-5.648-2-1.963-7.51-4.168-5.66-6.969Z" style="fill:#fff" transform="matrix(.99027 .12158 -.12162 .99039 23.226 -190.284)"/>
      </g>
    </g>
  </g>
</svg>