<svg viewBox="0 0 250 250" xmlns="http://www.w3.org/2000/svg">
  <g fill="#dc524a">
    <path
      d="M39.322 236.168h108.956s-24.167-54.887-18.023-105.27c6.145-50.381 45.877-73.319 68.405-75.777 22.529-2.457 34.817 11.47 34.817 11.47l4.915-7.374s-32.359-32.768-73.32-29.082c-40.96 3.687-69.224 30.72-86.837 63.49-17.613 32.768-27.853 55.706-34.817 90.113-6.963 34.407-4.096 52.43-4.096 52.43zM17.613 181.28l21.3 1.64-3.687 21.299-20.07-2.458 2.457-20.48zM51.201 136.224l5.735-15.975-18.842-7.373-6.145 17.204 19.252 6.144zM77.826 81.336L88.885 68.23l-14.336-9.421-11.47 12.698 14.747 9.83zM106.908 30.545l9.83 11.878 13.517-7.782-9.83-11.06-13.517 6.964zM154.832 17.028l2.458 11.878 16.794-.41-1.639-10.649-17.613-.82z" />
    <path
      d="M211.768 29.726l-.41 7.373 11.469 6.144 2.458-3.687-13.517-9.83zM209.31 61.265v6.145l11.06 1.228v-4.915l-11.06-2.458zM174.084 66.59l5.324 9.831 7.783-6.144-1.638-6.554-11.47 2.867zM157.29 79.288l8.192 12.288-4.916 8.602-11.878-13.107 8.602-7.783zM140.905 113.286l-5.325 10.65 13.927 11.878 3.277-13.517-11.879-9.011zM135.17 150.56l-.818 14.336 17.203 7.373-.82-13.517-15.564-8.192zM140.086 201.351l4.096 14.746 21.71 1.23-7.783-15.976h-18.023z" />
  </g>
</svg>