<svg width="100" height="100" viewBox="0 0 100 100" fill="none" xmlns="http://www.w3.org/2000/svg">
    <path d="M77 21H25L10 36.5L49 84L91.5 36.5L77 21Z" fill="#142641" />
    <path d="M68.6623 61.3062H30.9825V67.258H68.6623V61.3062Z" fill="#274D82" />
    <path d="M64.2668 66.2386H35.0781V72.1904H64.2668V66.2386Z" fill="#274D82" />
    <path d="M71.4673 59.7614H55.8484V61.4366H71.4673V59.7614Z" fill="#274D82" />
    <path d="M80.7771 22.4685L25.1479 54.9628L30.9206 64.3963L86.5497 31.9019L80.7771 22.4685Z"
        fill="#274D82" />
    <path d="M47.3284 19.2216L11.5866 39.8926L12.7524 41.8608L48.4942 21.1898L47.3284 19.2216Z"
        fill="#274D82" />
    <path d="M46.1655 17.8673L10.4237 38.5383L11.5895 40.5066L47.3313 19.8356L46.1655 17.8673Z"
        fill="#274D82" />
    <path d="M45.0127 16.8089L9.2709 37.4799L10.4367 39.4481L46.1785 18.7771L45.0127 16.8089Z"
        fill="#274D82" />
    <path d="M50.5436 19.2211L12.7394 41.0691L13.6551 42.6239L51.4592 20.7759L50.5436 19.2211Z"
        fill="#274D82" />
    <path d="M52.9029 19.6451L13.647 42.3306L14.5624 43.8859L53.8183 21.2004L52.9029 19.6451Z"
        fill="#274D82" />
    <path d="M56.2843 19.2216L14.3097 43.4867L15.4737 45.4583L57.4483 21.1932L56.2843 19.2216Z"
        fill="#274D82" />
    <path d="M78.8634 21.7798L66.4257 29.3004L70.3332 35.5232L82.771 28.0026L78.8634 21.7798Z"
        fill="#274D82" />
    <path fill-rule="evenodd" clip-rule="evenodd"
        d="M78.0219 16.587H23.9239L4.15878 36.2505L49.0324 90.2873L52.6122 86.2706L97.031 36.435L78.0219 16.587ZM76.0456 21.2167L90.7282 36.548L49.1567 83.1898L10.4239 36.548L25.8343 21.2167H76.0456Z"
        fill="#3068B7" />
</svg>