<svg width="100" height="100" viewBox="0 0 100 100" fill="none" xmlns="http://www.w3.org/2000/svg">
<g clip-path="url(#clip0_9_2)">
<rect width="100" height="100" fill="white"/>
<circle cx="50" cy="50" r="49.875" stroke="white" stroke-width="0.25"/>
<path d="M47 28.25L50 25.25L53 28.25L50 31.25L47 28.25Z" stroke="white" stroke-width="0.25"/>
<path d="M43.25 35L50 28.25L56.75 35L50 41.75L43.25 35Z" stroke="white" stroke-width="0.25"/>
<path d="M35 50L50 35L65 50L50 65L35 50Z" stroke="white" stroke-width="0.5"/>
<path d="M85.25 14.75L50 50L85.25 85.25" stroke="white" stroke-width="0.25"/>
<path d="M50 52L52 50L50 48L48 50L50 52Z" fill="white"/>
<path d="M55.5 31V41C55.5 43.1667 56.5 48 60.5 50C56.5 52 55.5 57 55.5 59C55.5 63 55.5 67.6667 55.5 69" stroke="white"/>
</g>
<defs>
<clipPath id="clip0_9_2">
<rect width="100" height="100" fill="white"/>
</clipPath>
</defs>
</svg>
